PathFileType	4	(X/Y/Z)	C:/Users/beibeiliu/ov580/test_trc/User1\sequence.32_training_dense_left.trc
DataRate	CameraRate	NumFrames	NumMarkers	Units	OrigDataRate	OrigDataStartFrame	OrigNumFrames
120	120	17	19	mm	120	141	224
Frame#	Time	ThumbCMC			ThumbMCP			ThumbIP			ThumbTip			IndexMCP			IndexPIP			IndexTip			MiddleMCP			MiddlePIP			MiddleTip			RingMCP			RingPIP			RingTip			PinkyMCP			PinkyPIP			PinkyTip			BackHand1			BackHand2			BackHand3	
		X0	Y0	Z0	X1	Y1	Z1	X2	Y2	Z2	X3	Y3	Z3	X4	Y4	Z4	X5	Y5	Z5	X6	Y6	Z6	X7	Y7	Z7	X8	Y8	Z8	X9	Y9	Z9	X10	Y10	Z10	X11	Y11	Z11	X12	Y12	Z12	X13	Y13	Z13	X14	Y14	Z14	X15	Y15	Z15	X16	Y16	Z16	X17	Y17	Z17	X18	Y18	Z18	
140	1.16667	-186.935	-26.9404	5.62994	-192.052	-10.078	-16.4669	-192.189	-2.31661	-43.7134	-200.244	8.26223	-61.3157	-130.219	-45.5294	-63.7967	-108.783	-42.5511	-84.4932	-85.4772	-38.582	-95.5978	-112.538	-67.1162	-54.8199	-87.0387	-63.031	-71.9065	-56.701	-49.7197	-84.5989	-96.6746	-74.5046	-35.6844	-66.4933	-57.4876	-45.3495	-50.7406	-33.8014	-37.5714	-89.2134	-78.3628	-6.28519	-68.5387	-60.768	-9.82046	-66.2894	-32.2124	-10.0807	-145.126	-82.9825	3.68923	-167.12	-81.4574	32.1733	-175.673	-59.924	-4.23775	
141	1.175	-188.036	-25.4052	6.28147	-190.301	-10.6905	-16.8638	-195.91	-1.07958	-42.5562	-198.631	8.35243	-56.5449	-134.7	-43.6762	-64.3972	-115.044	-42.8406	-83.8086	-89.137	-37.069	-101.773	-115.011	-71.3755	-56.5648	-89.997	-63.7282	-80.2498	-62.9719	-56.2375	-91.4225	-95.5448	-80.5395	-38.2569	-69.5445	-68.2928	-48.2496	-49.7355	-47.5397	-43.6114	-86.2694	-83.377	-8.74246	-67.9483	-69.019	-13.0315	-59.9725	-34.8894	-15.171	-143.55	-84.3383	-0.755925	-164.766	-84.4177	27.532	-172.86	-60.1288	-1.13269	
142	1.18333	-189.211	-22.9128	8.35588	-191.753	-9.1681	-16.6418	-194.493	0.328996	-43.0281	-198.849	10.1264	-58.8588	-137.408	-45.1697	-65.8158	-116.374	-45.7967	-86.4544	-94.5268	-42.2973	-101.92	-117.985	-69.6682	-61.6733	-95.7837	-69.7958	-80.7095	-65.2279	-63.7984	-97.2923	-103.295	-81.0973	-41.2374	-74.6711	-75.539	-55.1828	-50.8412	-52.4415	-60.5814	-87.9451	-88.5851	-8.9957	-68.8707	-77.82	-18.9337	-49.9987	-54.6233	-24.4227	-146.254	-82.9259	-0.167294	-163.645	-84.8163	27.9205	-173.795	-60.25	-0.0460619	
143	1.19167	-187.94	-23.5958	6.91724	-189.533	-8.72204	-16.8671	-193.962	0.987303	-42.0065	-198.937	11.248	-59.2956	-138.758	-44.4531	-66.7671	-121.898	-45.3857	-87.6706	-100.367	-42.5502	-106.318	-118.943	-73.7749	-62.5427	-99.2091	-72.8376	-84.2227	-75.2476	-67.8228	-105.407	-105.021	-82.6402	-41.6022	-76.4045	-78.4235	-60.717	-56.6842	-65.9606	-68.5431	-94.121	-89.8398	-7.85134	-71.3734	-86.3454	-21.0673	-45.624	-72.4276	-32.6599	-147.637	-82.4823	-2.90651	-162.892	-83.3319	29.3681	-172.55	-59.0599	0.446191	
144	1.2	-187.058	-22.6729	8.3174	-193.027	-7.627	-18.2674	-194.368	1.42698	-43.2703	-203.104	12.9702	-60.1325	-141.203	-44.925	-66.8624	-125.38	-42.3865	-89.9809	-105.392	-42.2113	-111.72	-123.259	-72.8947	-61.5825	-106.571	-72.8832	-83.4058	-83.7667	-70.303	-109.878	-102.85	-79.9949	-46.2811	-82.9854	-77.8956	-60.7018	-54.8599	-66.5155	-73.4045	-95.7396	-87.3152	-11.9967	-71.3384	-89.5851	-21.0808	-52.2114	-89.7775	-33.6221	-147.296	-80.9741	-1.55273	-163.555	-82.002	29.5692	-173.213	-57.4167	-2.64307	
145	1.20833	-187.668	-22.3146	4.22856	-191.015	-7.17907	-17.5026	-193.221	2.10065	-44.4797	-201.153	13.4698	-59.1507	-140.232	-45.1038	-70.0402	-127.779	-45.338	-89.013	-111.082	-45.3224	-109.23	-123.461	-72.3184	-60.7665	-107.562	-73.4984	-83.439	-88.2319	-73.8049	-112.788	-106.37	-78.1941	-43.4115	-79.8408	-75.6415	-61.2828	-55.4526	-61.6781	-73.2092	-90.3321	-90.2011	-12.2178	-73.1036	-90.9938	-19.2222	-52.3876	-94.3361	-33.5294	-144.449	-81.6012	1.11095	-162.264	-83.07	30.2143	-174.625	-56.7407	-0.0980286	
146	1.21667	-183.744	-23.8303	7.65995	-187.318	-7.1389	-16.7108	-195.873	4.54193	-39.9822	-197.872	13.5095	-57.1024	-140.719	-46.6496	-68.0464	-130.823	-43.7226	-88.3476	-111.362	-47.2305	-114.317	-126.19	-70.0546	-62.3594	-108.486	-72.308	-84.1183	-90.7799	-73.7907	-109.249	-102.442	-77.3479	-45.7088	-76.021	-70.8904	-62.6889	-56.2326	-58.1619	-67.7249	-91.0702	-86.6295	-11.8565	-74.4966	-88.0089	-22.7499	-52.8214	-90.4234	-38.8492	-144.636	-80.1365	1.40443	-161.444	-82.0858	28.9233	-174.54	-60.3198	0.532784	
147	1.225	-184.799	-22.3593	6.34774	-190.961	-4.65956	-15.7347	-190.65	2.31006	-41.0196	-201.87	15.1692	-56.3964	-144.74	-43.9579	-67.3132	-131.153	-44.7836	-88.4846	-115.625	-47.6032	-110.147	-123.036	-71.071	-61.409	-110.423	-70.9845	-83.0305	-92.6928	-73.4201	-107.271	-101.747	-76.8352	-41.3681	-76.772	-65.4872	-59.8559	-51.61	-47.6665	-61.6144	-90.3058	-86.4717	-11.058	-70.4293	-83.02	-24.6021	-48.6046	-80.0624	-38.4866	-142.477	-81.8604	0.123398	-164.138	-78.6091	32.3663	-176.09	-54.921	0.665457	
148	1.23333	-187.714	-20.8012	8.57026	-189.555	-5.09146	-17.1538	-191.695	3.5694	-40.3054	-201.674	17.3466	-55.3111	-143.265	-44.8015	-64.5839	-129.723	-46.6401	-86.6189	-113.863	-50.918	-110.489	-125.573	-67.723	-61.3149	-109.224	-69.279	-84.1974	-88.3926	-74.6822	-107.03	-98.4504	-74.5035	-40.5748	-74.287	-60.6709	-55.696	-54.6331	-34.6257	-54.0495	-90.3019	-81.5511	-11.7873	-68.6681	-75.2133	-24.3551	-46.4732	-62.6054	-35.7843	-142.536	-80.0502	0.0285612	-166.249	-77.0918	32.1014	-174.865	-56.2319	0.040515	
149	1.24167	-184.513	-20.9801	8.60573	-191.143	-1.71587	-13.9999	-192.77	6.74019	-43.1175	-199.343	17.6629	-59.0341	-140.003	-43.5031	-68.4969	-128.584	-46.4295	-85.6446	-113.959	-47.6219	-113.171	-124.503	-65.6042	-59.8721	-107.392	-69.6763	-82.0066	-86.2696	-71.2837	-110.747	-99.136	-69.2828	-42.3545	-70.1121	-54.0761	-51.9038	-54.4768	-31.2995	-43.0745	-90.1535	-77.5633	-10.8784	-67.3724	-70.1249	-18.9858	-48.2837	-47.6862	-29.0264	-141.77	-80.3756	0.646444	-160.984	-78.4768	32.1129	-175.775	-53.6679	-0.715103	
150	1.25	-182.394	-20.715	6.15626	-187.791	-1.56081	-17.9836	-192.105	8.12529	-39.0273	-199.24	20.0591	-54.8487	-140.181	-42.5619	-65.0561	-129.88	-42.5156	-90.4634	-113.156	-49.5218	-110.443	-119.261	-67.1044	-61.1107	-101.405	-68.8088	-84.512	-85.5428	-69.352	-105.482	-96.7623	-65.6386	-44.4753	-68.8039	-48.7771	-48.825	-57.4118	-23.5361	-35.3588	-85.7289	-77.0028	-10.8246	-65.5357	-60.9185	-19.1866	-50.2359	-35.2426	-25.5341	-144.186	-77.1042	2.11412	-161.039	-75.7863	30.0261	-174.931	-53.403	-0.966155	
151	1.25833	-184.864	-17.254	4.70865	-184.354	-2.80071	-16.5039	-191.099	8.4524	-43.3835	-194.824	18.8601	-57.665	-139.959	-41.2226	-64.309	-127.969	-42.4334	-87.6596	-111.846	-47.9153	-110.882	-119.148	-65.2831	-58.3026	-101.986	-67.0698	-83.0486	-81.359	-67.0249	-107.2	-92.8708	-64.7667	-42.5093	-68.1248	-44.1724	-46.1402	-58.6551	-21.3923	-31.1609	-85.8734	-71.8483	-14.5092	-65.309	-55.5547	-18.1073	-57.5996	-28.3232	-19.0324	-140.86	-79.7217	-0.660598	-159.575	-76.9991	29.9086	-169.219	-54.6263	-2.44966	
152	1.26667	-183.05	-16.6767	5.73469	-186.041	0.205563	-12.6488	-190.737	9.61739	-39.1723	-196.207	19.8918	-54.1645	-138.889	-38.4693	-67.1005	-127.992	-39.5364	-89.8287	-113.781	-46.3135	-109.162	-117.528	-64.1884	-60.2341	-101.763	-63.5742	-83.3607	-78.9882	-65.07	-103.809	-95.257	-62.8765	-40.8636	-68.3853	-43.0227	-44.1714	-62.6437	-15.3246	-22.3433	-83.326	-70.3893	-11.1621	-68.473	-47.0602	-17.7648	-68.1613	-18.1615	-12.5761	-141.338	-75.971	2.0394	-162.326	-73.7628	28.5699	-170.511	-52.4905	0.134373	
153	1.275	-180.957	-16.0323	7.29341	-187.643	2.20717	-14.6442	-186.533	9.44981	-40.0575	-194.442	21.5585	-52.7327	-136.909	-39.7193	-62.8391	-126.339	-40.1935	-91.2434	-109.966	-47.3369	-111.077	-116.245	-60.9561	-63.7316	-97.7728	-62.4222	-81.7547	-76.4186	-59.1165	-104.295	-92.4676	-62.8119	-37.6198	-66.2393	-36.089	-40.7774	-67.9945	-13.0967	-21.2247	-85.1835	-64.1876	-12.9855	-67.7005	-39.317	-12.3107	-74.6981	-12.6272	-5.15426	-137.213	-75.5614	-0.579937	-160.168	-73.5854	31.4543	-170.974	-51.3164	1.13405	
154	1.28333	-180.307	-14.7872	6.96467	-187.051	4.3434	-16.9523	-188.417	13.255	-43.709	-191.734	22.1557	-56.2568	-136.949	-36.7808	-68.6772	-123.254	-41.0155	-88.2161	-109.78	-45.1398	-108.113	-113.002	-60.2222	-59.6224	-95.9888	-57.6025	-82.1848	-70.4934	-54.3304	-103.879	-94.1389	-56.1004	-39.1866	-66.6189	-30.1925	-35.2061	-74.1446	-9.66024	-12.7163	-83.3026	-61.6451	-10.4261	-71.8614	-32.4091	-12.1211	-82.0682	-10.4281	1.34176	-139.255	-71.6431	0.0270101	-158.622	-71.1389	32.2051	-168.634	-47.5466	-1.94535	
155	1.29167	-181.387	-12.8261	9.07083	-180.127	3.51696	-17.0545	-185.662	14.6682	-41.049	-194.874	25.2827	-57.3859	-138.326	-33.5843	-65.8058	-125.73	-37.2353	-90.5921	-109.97	-43.0769	-111.058	-113.212	-57.7379	-60.3941	-91.1248	-53.9121	-84.443	-67.2148	-51.4728	-99.7933	-91.3185	-51.8896	-39.4769	-67.1814	-27.27	-33.3901	-81.0037	-6.96299	-8.61709	-81.5081	-54.3978	-12.9968	-72.2062	-28.9242	-6.55348	-88.9999	-7.24627	7.04313	-139.205	-70.4642	-1.27732	-160.387	-70.2052	30.5265	-168.984	-49.957	1.15543	
156	1.3	-179.962	-11.7801	5.64789	-180.187	4.12803	-15.5968	-185.896	15.9909	-42.001	-194.58	28.5772	-52.9416	-132.809	-36.7339	-66.7588	-122.294	-38.9867	-87.8126	-107.99	-42.8172	-109.269	-108.191	-58.0215	-61.0817	-89.2618	-54.6423	-80.5693	-61.9519	-50.0144	-98.44	-84.3951	-50.5477	-37.0936	-70.6409	-19.4179	-31.1503	-86.9903	-6.68814	-4.02374	-84.4832	-53.9119	-11.7306	-74.6779	-26.9395	-6.58965	-92.7522	-6.78073	12.5376	-135.424	-69.3553	-1.6256	-157.122	-67.9058	27.9222	-164.866	-48.6305	-2.35819	
